<svg xmlns="http://www.w3.org/2000/svg" viewBox="0 0 800 420" font-family="Segoe UI, sans-serif">
<rect width="800" height="420" fill="#0d1117" rx="8"/>
<text x="64" y="30" fill="#e6edf3" font-size="17" font-weight="700">★ Star History — timoncool/SuperCaption_Qwen3-VL</text>
<text x="776" y="30" fill="#e6edf3" font-size="14" text-anchor="end">16 stars · updated 2026-07-27</text>
<line x1="64" y1="364.0" x2="776" y2="364.0" stroke="#30363d" stroke-width="1"/><text x="54" y="368.0" fill="#e6edf3" font-size="13" text-anchor="end">0</text><line x1="64" y1="285.0" x2="776" y2="285.0" stroke="#30363d" stroke-width="1"/><text x="54" y="289.0" fill="#e6edf3" font-size="13" text-anchor="end">4</text><line x1="64" y1="206.0" x2="776" y2="206.0" stroke="#30363d" stroke-width="1"/><text x="54" y="210.0" fill="#e6edf3" font-size="13" text-anchor="end">8</text><line x1="64" y1="127.0" x2="776" y2="127.0" stroke="#30363d" stroke-width="1"/><text x="54" y="131.0" fill="#e6edf3" font-size="13" text-anchor="end">12</text><line x1="64" y1="48.0" x2="776" y2="48.0" stroke="#30363d" stroke-width="1"/><text x="54" y="52.0" fill="#e6edf3" font-size="13" text-anchor="end">16</text>
<path d="M64.0,364.0 L64.0,344.2 L113.4,324.5 L222.9,304.8 L240.3,285.0 L269.3,265.2 L290.0,245.5 L424.7,225.8 L445.3,206.0 L479.9,186.2 L486.0,166.5 L490.5,146.8 L498.9,127.0 L520.3,107.2 L663.6,87.5 L748.2,67.8 L762.8,48.0 L776.0,48.0" fill="none" stroke="#4f8ff7" stroke-width="2.5" stroke-linejoin="round"/>
<circle cx="776.0" cy="48.0" r="4" fill="#4f8ff7"/>
<text x="64.0" y="388" fill="#e6edf3" font-size="13" text-anchor="middle">Nov 26, 2025</text><text x="301.3" y="388" fill="#e6edf3" font-size="13" text-anchor="middle">Feb 15, 2026</text><text x="538.7" y="388" fill="#e6edf3" font-size="13" text-anchor="middle">May 07, 2026</text><text x="776.0" y="388" fill="#e6edf3" font-size="13" text-anchor="middle">Jul 27, 2026</text>
</svg>